<?xml version="1.0" encoding="UTF-8" standalone="no"?>
<svg
   xmlns:dc="http://purl.org/dc/elements/1.1/"
   xmlns:cc="http://creativecommons.org/ns#"
   xmlns:rdf="http://www.w3.org/1999/02/22-rdf-syntax-ns#"
   xmlns:svg="http://www.w3.org/2000/svg"
   xmlns="http://www.w3.org/2000/svg"
   xmlns:sodipodi="http://sodipodi.sourceforge.net/DTD/sodipodi-0.dtd"
   xmlns:inkscape="http://www.inkscape.org/namespaces/inkscape"
   viewBox="0 0 512 512"
   version="1.1"
   id="svg4"
   sodipodi:docname="universal-access-solid.svg"
   inkscape:version="1.0.2-2 (e86c870879, 2021-01-15)">
  <metadata
     id="metadata10">
    <rdf:RDF>
      <cc:Work
         rdf:about="">
        <dc:format>image/svg+xml</dc:format>
        <dc:type
           rdf:resource="http://purl.org/dc/dcmitype/StillImage" />
      </cc:Work>
    </rdf:RDF>
  </metadata>
  <defs
     id="defs8" />
  <sodipodi:namedview
     pagecolor="#ffffff"
     bordercolor="#666666"
     borderopacity="1"
     objecttolerance="10"
     gridtolerance="10"
     guidetolerance="10"
     inkscape:pageopacity="0"
     inkscape:pageshadow="2"
     inkscape:window-width="1536"
     inkscape:window-height="801"
     id="namedview6"
     showgrid="false"
     inkscape:zoom="1.6953125"
     inkscape:cx="256"
     inkscape:cy="256"
     inkscape:window-x="-8"
     inkscape:window-y="-8"
     inkscape:window-maximized="1"
     inkscape:current-layer="svg4" />
  <!--! Font Awesome Pro 6.1.1 by @fontawesome - https://fontawesome.com License - https://fontawesome.com/license (Commercial License) Copyright 2022 Fonticons, Inc. -->
  <path
     d="M256 0C114.6 0 0 114.6 0 256c0 141.4 114.6 256 256 256s256-114.6 256-256C512 114.6 397.4 0 256 0zM256 80c22.09 0 40 17.91 40 40S278.1 160 256 160S216 142.1 216 120S233.9 80 256 80zM374.6 215.1L315.3 232C311.6 233.1 307.8 233.6 304 234.4v62.32l30.64 87.34c4.391 12.5-2.188 26.19-14.69 30.59C317.3 415.6 314.6 416 312 416c-9.906 0-19.19-6.188-22.64-16.06l-25.85-70.65c-2.562-7.002-12.46-7.002-15.03 0l-25.85 70.65C219.2 409.8 209.9 416 200 416c-2.641 0-5.312-.4375-7.953-1.344c-12.5-4.406-19.08-18.09-14.69-30.59L208 296.7V234.4C204.2 233.6 200.4 233.1 196.7 232L137.4 215.1C124.7 211.4 117.3 198.2 120.9 185.4S137.9 165.2 150.6 168.9l59.25 16.94c30.17 8.623 62.15 8.623 92.31 0l59.25-16.94c12.7-3.781 26.02 3.719 29.67 16.47C394.7 198.2 387.3 211.4 374.6 215.1z"
     id="path2"
     style="fill:#3771c8" />
</svg>
